<svg width="34" height="34" viewBox="0 0 34 34" fill="none" xmlns="http://www.w3.org/2000/svg">
<rect width="34" height="34" rx="16" fill="#262522" fill-opacity="0.16"/>
<path d="M9 12.4167C9 12.1736 9.10536 11.9404 9.29289 11.7685C9.48043 11.5966 9.73478 11.5 10 11.5H24C24.2652 11.5 24.5196 11.5966 24.7071 11.7685C24.8946 11.9404 25 12.1736 25 12.4167C25 12.6598 24.8946 12.8929 24.7071 13.0648C24.5196 13.2368 24.2652 13.3333 24 13.3333H10C9.73478 13.3333 9.48043 13.2368 9.29289 13.0648C9.10536 12.8929 9 12.6598 9 12.4167ZM9 17C9 16.7569 9.10536 16.5237 9.29289 16.3518C9.48043 16.1799 9.73478 16.0833 10 16.0833H24C24.2652 16.0833 24.5196 16.1799 24.7071 16.3518C24.8946 16.5237 25 16.7569 25 17C25 17.2431 24.8946 17.4763 24.7071 17.6482C24.5196 17.8201 24.2652 17.9167 24 17.9167H10C9.73478 17.9167 9.48043 17.8201 9.29289 17.6482C9.10536 17.4763 9 17.2431 9 17ZM9 21.5833C9 21.3402 9.10536 21.1071 9.29289 20.9352C9.48043 20.7632 9.73478 20.6667 10 20.6667H24C24.2652 20.6667 24.5196 20.7632 24.7071 20.9352C24.8946 21.1071 25 21.3402 25 21.5833C25 21.8264 24.8946 22.0596 24.7071 22.2315C24.5196 22.4034 24.2652 22.5 24 22.5H10C9.73478 22.5 9.48043 22.4034 9.29289 22.2315C9.10536 22.0596 9 21.8264 9 21.5833Z" fill="#262522"/>
</svg>
